<mxfile host="app.diagrams.net" modified="2021-08-24T09:54:03.035Z" agent="5.0 (Windows NT 10.0; Win64; x64) AppleWebKit/537.36 (KHTML, like Gecko) Chrome/92.0.4515.159 Safari/537.36" etag="dCUeeJT1JlhOFmxoWZ8D" version="14.9.6" type="github">
  <diagram id="R2lEEEUBdFMjLlhIrx00" name="Page-1">
    <mxGraphModel dx="2390" dy="2407" grid="1" gridSize="10" guides="1" tooltips="1" connect="1" arrows="1" fold="1" page="1" pageScale="1" pageWidth="850" pageHeight="1100" math="0" shadow="0" extFonts="Permanent Marker^https://fonts.googleapis.com/css?family=Permanent+Marker">
      <root>
        <mxCell id="0" />
        <mxCell id="1" parent="0" />
        <mxCell id="RF-ld9qQcH9SprsrAYpF-3" value="&lt;b&gt;Users&lt;br&gt;(사용자)&lt;br&gt;&lt;/b&gt;" style="rounded=0;whiteSpace=wrap;html=1;fillColor=#d5e8d4;strokeColor=#82b366;" vertex="1" parent="1">
          <mxGeometry x="180" y="430" width="120" height="60" as="geometry" />
        </mxCell>
        <mxCell id="RF-ld9qQcH9SprsrAYpF-4" value="&lt;u&gt;&lt;b&gt;User ID&lt;/b&gt;&lt;/u&gt;" style="ellipse;whiteSpace=wrap;html=1;" vertex="1" parent="1">
          <mxGeometry x="220" y="315" width="100" height="50" as="geometry" />
        </mxCell>
        <mxCell id="RF-ld9qQcH9SprsrAYpF-5" value="NickName" style="ellipse;whiteSpace=wrap;html=1;" vertex="1" parent="1">
          <mxGeometry x="110" y="305" width="100" height="50" as="geometry" />
        </mxCell>
        <mxCell id="RF-ld9qQcH9SprsrAYpF-6" value="Email" style="ellipse;whiteSpace=wrap;html=1;" vertex="1" parent="1">
          <mxGeometry y="295" width="100" height="50" as="geometry" />
        </mxCell>
        <mxCell id="RF-ld9qQcH9SprsrAYpF-7" value="Phone&lt;br&gt;Number" style="ellipse;whiteSpace=wrap;html=1;" vertex="1" parent="1">
          <mxGeometry x="-70" y="340" width="100" height="50" as="geometry" />
        </mxCell>
        <mxCell id="RF-ld9qQcH9SprsrAYpF-9" value="status&lt;br&gt;(탈퇴 여부)" style="ellipse;whiteSpace=wrap;html=1;" vertex="1" parent="1">
          <mxGeometry x="-100" y="510" width="100" height="50" as="geometry" />
        </mxCell>
        <mxCell id="RF-ld9qQcH9SprsrAYpF-10" value="Gender" style="ellipse;whiteSpace=wrap;html=1;" vertex="1" parent="1">
          <mxGeometry x="-30" y="630" width="100" height="50" as="geometry" />
        </mxCell>
        <mxCell id="RF-ld9qQcH9SprsrAYpF-11" value="authStatus&lt;br&gt;(지역인증여부)" style="ellipse;whiteSpace=wrap;html=1;" vertex="1" parent="1">
          <mxGeometry x="70" y="670" width="100" height="50" as="geometry" />
        </mxCell>
        <mxCell id="RF-ld9qQcH9SprsrAYpF-13" value="" style="endArrow=none;html=1;exitX=0.656;exitY=-0.044;exitDx=0;exitDy=0;exitPerimeter=0;entryX=0.5;entryY=1;entryDx=0;entryDy=0;" edge="1" parent="1" source="RF-ld9qQcH9SprsrAYpF-10" target="RF-ld9qQcH9SprsrAYpF-3">
          <mxGeometry width="50" height="50" relative="1" as="geometry">
            <mxPoint x="180" y="610" as="sourcePoint" />
            <mxPoint x="270" y="500" as="targetPoint" />
          </mxGeometry>
        </mxCell>
        <mxCell id="RF-ld9qQcH9SprsrAYpF-14" value="" style="endArrow=none;html=1;exitX=0.428;exitY=-0.004;exitDx=0;exitDy=0;exitPerimeter=0;entryX=0.5;entryY=1;entryDx=0;entryDy=0;" edge="1" parent="1" source="RF-ld9qQcH9SprsrAYpF-11" target="RF-ld9qQcH9SprsrAYpF-3">
          <mxGeometry width="50" height="50" relative="1" as="geometry">
            <mxPoint x="175.5999999999999" y="607.8" as="sourcePoint" />
            <mxPoint x="263.6400000000001" y="517.42" as="targetPoint" />
          </mxGeometry>
        </mxCell>
        <mxCell id="RF-ld9qQcH9SprsrAYpF-15" value="" style="endArrow=none;html=1;exitX=1;exitY=0;exitDx=0;exitDy=0;entryX=0.5;entryY=1;entryDx=0;entryDy=0;" edge="1" parent="1" source="RF-ld9qQcH9SprsrAYpF-9" target="RF-ld9qQcH9SprsrAYpF-3">
          <mxGeometry width="50" height="50" relative="1" as="geometry">
            <mxPoint x="105.9799999999999" y="550.38" as="sourcePoint" />
            <mxPoint x="194.0200000000001" y="459.99999999999994" as="targetPoint" />
          </mxGeometry>
        </mxCell>
        <mxCell id="RF-ld9qQcH9SprsrAYpF-18" value="" style="endArrow=none;html=1;exitX=1.016;exitY=0.676;exitDx=0;exitDy=0;exitPerimeter=0;entryX=0;entryY=0.5;entryDx=0;entryDy=0;" edge="1" parent="1" source="RF-ld9qQcH9SprsrAYpF-7" target="RF-ld9qQcH9SprsrAYpF-3">
          <mxGeometry width="50" height="50" relative="1" as="geometry">
            <mxPoint x="115.35533905932743" y="567.3223304703363" as="sourcePoint" />
            <mxPoint x="210" y="460" as="targetPoint" />
          </mxGeometry>
        </mxCell>
        <mxCell id="RF-ld9qQcH9SprsrAYpF-19" value="" style="endArrow=none;html=1;exitX=1;exitY=1;exitDx=0;exitDy=0;entryX=0.5;entryY=0;entryDx=0;entryDy=0;" edge="1" parent="1" source="RF-ld9qQcH9SprsrAYpF-6" target="RF-ld9qQcH9SprsrAYpF-3">
          <mxGeometry width="50" height="50" relative="1" as="geometry">
            <mxPoint x="111.59999999999991" y="423.79999999999995" as="sourcePoint" />
            <mxPoint x="310" y="470" as="targetPoint" />
          </mxGeometry>
        </mxCell>
        <mxCell id="RF-ld9qQcH9SprsrAYpF-20" value="" style="endArrow=none;html=1;exitX=0.5;exitY=1;exitDx=0;exitDy=0;entryX=0.5;entryY=0;entryDx=0;entryDy=0;" edge="1" parent="1" source="RF-ld9qQcH9SprsrAYpF-5" target="RF-ld9qQcH9SprsrAYpF-3">
          <mxGeometry width="50" height="50" relative="1" as="geometry">
            <mxPoint x="175.35533905932743" y="362.6776695296637" as="sourcePoint" />
            <mxPoint x="359.55999999999995" y="438.98" as="targetPoint" />
          </mxGeometry>
        </mxCell>
        <mxCell id="RF-ld9qQcH9SprsrAYpF-21" value="" style="endArrow=none;html=1;exitX=0.5;exitY=1;exitDx=0;exitDy=0;entryX=0.5;entryY=0;entryDx=0;entryDy=0;" edge="1" parent="1" source="RF-ld9qQcH9SprsrAYpF-4" target="RF-ld9qQcH9SprsrAYpF-3">
          <mxGeometry width="50" height="50" relative="1" as="geometry">
            <mxPoint x="260" y="360" as="sourcePoint" />
            <mxPoint x="280" y="440" as="targetPoint" />
          </mxGeometry>
        </mxCell>
        <mxCell id="RF-ld9qQcH9SprsrAYpF-22" value="have" style="rhombus;whiteSpace=wrap;html=1;fillColor=#ffe6cc;strokeColor=#d79b00;" vertex="1" parent="1">
          <mxGeometry x="357.5" y="430" width="135" height="60" as="geometry" />
        </mxCell>
        <mxCell id="RF-ld9qQcH9SprsrAYpF-32" value="" style="endArrow=none;html=1;rounded=0;exitX=1;exitY=0.5;exitDx=0;exitDy=0;entryX=0;entryY=0.5;entryDx=0;entryDy=0;" edge="1" parent="1" source="RF-ld9qQcH9SprsrAYpF-3" target="RF-ld9qQcH9SprsrAYpF-22">
          <mxGeometry relative="1" as="geometry">
            <mxPoint x="320" y="500" as="sourcePoint" />
            <mxPoint x="480" y="500" as="targetPoint" />
          </mxGeometry>
        </mxCell>
        <mxCell id="RF-ld9qQcH9SprsrAYpF-33" value="1" style="resizable=0;html=1;align=right;verticalAlign=bottom;" connectable="0" vertex="1" parent="RF-ld9qQcH9SprsrAYpF-32">
          <mxGeometry x="1" relative="1" as="geometry" />
        </mxCell>
        <mxCell id="RF-ld9qQcH9SprsrAYpF-36" value="" style="endArrow=none;html=1;rounded=0;entryX=1;entryY=0.5;entryDx=0;entryDy=0;exitX=0;exitY=0.5;exitDx=0;exitDy=0;" edge="1" parent="1" source="RF-ld9qQcH9SprsrAYpF-38" target="RF-ld9qQcH9SprsrAYpF-22">
          <mxGeometry relative="1" as="geometry">
            <mxPoint x="590" y="460" as="sourcePoint" />
            <mxPoint x="720" y="480" as="targetPoint" />
          </mxGeometry>
        </mxCell>
        <mxCell id="RF-ld9qQcH9SprsrAYpF-38" value="&lt;b&gt;Posts&lt;br&gt;(게시글)&lt;br&gt;&lt;/b&gt;" style="rounded=0;whiteSpace=wrap;html=1;fillColor=#d5e8d4;strokeColor=#82b366;" vertex="1" parent="1">
          <mxGeometry x="550" y="430" width="120" height="60" as="geometry" />
        </mxCell>
        <mxCell id="RF-ld9qQcH9SprsrAYpF-39" value="User ID" style="ellipse;whiteSpace=wrap;html=1;" vertex="1" parent="1">
          <mxGeometry x="650" y="590" width="100" height="50" as="geometry" />
        </mxCell>
        <mxCell id="RF-ld9qQcH9SprsrAYpF-40" value="RegDate" style="ellipse;whiteSpace=wrap;html=1;" vertex="1" parent="1">
          <mxGeometry x="560" y="620" width="100" height="50" as="geometry" />
        </mxCell>
        <mxCell id="RF-ld9qQcH9SprsrAYpF-41" value="Post&lt;br&gt;Content" style="ellipse;whiteSpace=wrap;html=1;" vertex="1" parent="1">
          <mxGeometry x="355" y="610" width="100" height="50" as="geometry" />
        </mxCell>
        <mxCell id="RF-ld9qQcH9SprsrAYpF-42" value="UpDate" style="ellipse;whiteSpace=wrap;html=1;" vertex="1" parent="1">
          <mxGeometry x="455" y="620" width="100" height="50" as="geometry" />
        </mxCell>
        <mxCell id="RF-ld9qQcH9SprsrAYpF-43" value="&lt;b&gt;&lt;u&gt;Post ID&lt;/u&gt;&lt;/b&gt;" style="ellipse;whiteSpace=wrap;html=1;" vertex="1" parent="1">
          <mxGeometry x="330" y="540" width="100" height="50" as="geometry" />
        </mxCell>
        <mxCell id="RF-ld9qQcH9SprsrAYpF-45" value="" style="endArrow=none;html=1;exitX=0.5;exitY=1;exitDx=0;exitDy=0;entryX=0.5;entryY=0;entryDx=0;entryDy=0;" edge="1" parent="1" source="RF-ld9qQcH9SprsrAYpF-38" target="RF-ld9qQcH9SprsrAYpF-43">
          <mxGeometry width="50" height="50" relative="1" as="geometry">
            <mxPoint x="552.8000000000002" y="639.8" as="sourcePoint" />
            <mxPoint x="540" y="540" as="targetPoint" />
          </mxGeometry>
        </mxCell>
        <mxCell id="RF-ld9qQcH9SprsrAYpF-46" value="" style="endArrow=none;html=1;exitX=0.5;exitY=0;exitDx=0;exitDy=0;entryX=0.5;entryY=1;entryDx=0;entryDy=0;" edge="1" parent="1" source="RF-ld9qQcH9SprsrAYpF-41" target="RF-ld9qQcH9SprsrAYpF-38">
          <mxGeometry width="50" height="50" relative="1" as="geometry">
            <mxPoint x="660" y="500" as="sourcePoint" />
            <mxPoint x="650" y="500" as="targetPoint" />
          </mxGeometry>
        </mxCell>
        <mxCell id="RF-ld9qQcH9SprsrAYpF-47" value="" style="endArrow=none;html=1;exitX=0.5;exitY=0;exitDx=0;exitDy=0;entryX=0.5;entryY=1;entryDx=0;entryDy=0;" edge="1" parent="1" source="RF-ld9qQcH9SprsrAYpF-42" target="RF-ld9qQcH9SprsrAYpF-38">
          <mxGeometry width="50" height="50" relative="1" as="geometry">
            <mxPoint x="760" y="540" as="sourcePoint" />
            <mxPoint x="660" y="500" as="targetPoint" />
          </mxGeometry>
        </mxCell>
        <mxCell id="RF-ld9qQcH9SprsrAYpF-48" value="" style="endArrow=none;html=1;exitX=0.5;exitY=0;exitDx=0;exitDy=0;entryX=0.5;entryY=1;entryDx=0;entryDy=0;" edge="1" parent="1" source="RF-ld9qQcH9SprsrAYpF-40" target="RF-ld9qQcH9SprsrAYpF-38">
          <mxGeometry width="50" height="50" relative="1" as="geometry">
            <mxPoint x="750.0000000000023" y="495" as="sourcePoint" />
            <mxPoint x="630" y="540" as="targetPoint" />
          </mxGeometry>
        </mxCell>
        <mxCell id="RF-ld9qQcH9SprsrAYpF-49" value="" style="endArrow=none;html=1;exitX=0;exitY=0;exitDx=0;exitDy=0;entryX=0.5;entryY=1;entryDx=0;entryDy=0;" edge="1" parent="1" source="RF-ld9qQcH9SprsrAYpF-39" target="RF-ld9qQcH9SprsrAYpF-38">
          <mxGeometry width="50" height="50" relative="1" as="geometry">
            <mxPoint x="750.0000000000023" y="425" as="sourcePoint" />
            <mxPoint x="660" y="530" as="targetPoint" />
          </mxGeometry>
        </mxCell>
        <mxCell id="RF-ld9qQcH9SprsrAYpF-50" value="have" style="rhombus;whiteSpace=wrap;html=1;fillColor=#ffe6cc;strokeColor=#d79b00;" vertex="1" parent="1">
          <mxGeometry x="575" y="295" width="135" height="60" as="geometry" />
        </mxCell>
        <mxCell id="RF-ld9qQcH9SprsrAYpF-51" value="" style="endArrow=none;html=1;rounded=0;entryX=0;entryY=0.5;entryDx=0;entryDy=0;exitX=0.5;exitY=0;exitDx=0;exitDy=0;" edge="1" parent="1" target="RF-ld9qQcH9SprsrAYpF-50" source="RF-ld9qQcH9SprsrAYpF-38">
          <mxGeometry relative="1" as="geometry">
            <mxPoint x="600" y="360" as="sourcePoint" />
            <mxPoint x="690" y="465" as="targetPoint" />
          </mxGeometry>
        </mxCell>
        <mxCell id="RF-ld9qQcH9SprsrAYpF-52" value="1" style="resizable=0;html=1;align=right;verticalAlign=bottom;" connectable="0" vertex="1" parent="RF-ld9qQcH9SprsrAYpF-51">
          <mxGeometry x="1" relative="1" as="geometry" />
        </mxCell>
        <mxCell id="RF-ld9qQcH9SprsrAYpF-53" value="" style="endArrow=none;html=1;rounded=0;exitX=0.5;exitY=1;exitDx=0;exitDy=0;entryX=1;entryY=0.5;entryDx=0;entryDy=0;" edge="1" parent="1" target="RF-ld9qQcH9SprsrAYpF-50" source="RF-ld9qQcH9SprsrAYpF-55">
          <mxGeometry relative="1" as="geometry">
            <mxPoint x="980" y="165" as="sourcePoint" />
            <mxPoint x="770" y="255" as="targetPoint" />
            <Array as="points" />
          </mxGeometry>
        </mxCell>
        <mxCell id="RF-ld9qQcH9SprsrAYpF-54" value="N" style="resizable=0;html=1;align=right;verticalAlign=bottom;" connectable="0" vertex="1" parent="RF-ld9qQcH9SprsrAYpF-53">
          <mxGeometry x="1" relative="1" as="geometry">
            <mxPoint x="10" y="20" as="offset" />
          </mxGeometry>
        </mxCell>
        <mxCell id="RF-ld9qQcH9SprsrAYpF-55" value="&lt;b&gt;Posts&lt;br&gt;Likes&lt;br&gt;(추천)&lt;br&gt;&lt;/b&gt;" style="rounded=0;whiteSpace=wrap;html=1;fillColor=#d5e8d4;strokeColor=#82b366;" vertex="1" parent="1">
          <mxGeometry x="690" y="110" width="120" height="60" as="geometry" />
        </mxCell>
        <mxCell id="RF-ld9qQcH9SprsrAYpF-56" value="&lt;b&gt;Photos&lt;br&gt;(사진)&lt;br&gt;&lt;/b&gt;" style="rounded=0;whiteSpace=wrap;html=1;fillColor=#d5e8d4;strokeColor=#82b366;" vertex="1" parent="1">
          <mxGeometry x="820" y="140" width="120" height="60" as="geometry" />
        </mxCell>
        <mxCell id="RF-ld9qQcH9SprsrAYpF-57" value="&lt;b&gt;Shares&lt;br&gt;(공유, 스크랩)&lt;br&gt;&lt;/b&gt;" style="rounded=0;whiteSpace=wrap;html=1;fillColor=#d5e8d4;strokeColor=#82b366;" vertex="1" parent="1">
          <mxGeometry x="930" y="215" width="120" height="60" as="geometry" />
        </mxCell>
        <mxCell id="RF-ld9qQcH9SprsrAYpF-58" value="&lt;b&gt;Files&lt;br&gt;(첨부파일)&lt;br&gt;&lt;/b&gt;" style="rounded=0;whiteSpace=wrap;html=1;fillColor=#d5e8d4;strokeColor=#82b366;" vertex="1" parent="1">
          <mxGeometry x="1060" y="280" width="120" height="60" as="geometry" />
        </mxCell>
        <mxCell id="RF-ld9qQcH9SprsrAYpF-63" value="" style="endArrow=none;html=1;exitX=1;exitY=0.5;exitDx=0;exitDy=0;entryX=0.5;entryY=1;entryDx=0;entryDy=0;" edge="1" parent="1" source="RF-ld9qQcH9SprsrAYpF-50" target="RF-ld9qQcH9SprsrAYpF-56">
          <mxGeometry width="50" height="50" relative="1" as="geometry">
            <mxPoint x="1020" y="295" as="sourcePoint" />
            <mxPoint x="1070" y="245" as="targetPoint" />
          </mxGeometry>
        </mxCell>
        <mxCell id="RF-ld9qQcH9SprsrAYpF-64" value="" style="endArrow=none;html=1;exitX=1;exitY=0.5;exitDx=0;exitDy=0;entryX=0;entryY=0.5;entryDx=0;entryDy=0;" edge="1" parent="1" source="RF-ld9qQcH9SprsrAYpF-50" target="RF-ld9qQcH9SprsrAYpF-57">
          <mxGeometry width="50" height="50" relative="1" as="geometry">
            <mxPoint x="955" y="275" as="sourcePoint" />
            <mxPoint x="1130" y="175" as="targetPoint" />
          </mxGeometry>
        </mxCell>
        <mxCell id="RF-ld9qQcH9SprsrAYpF-65" value="" style="endArrow=none;html=1;entryX=0;entryY=0.5;entryDx=0;entryDy=0;exitX=1;exitY=0.5;exitDx=0;exitDy=0;" edge="1" parent="1" source="RF-ld9qQcH9SprsrAYpF-50" target="RF-ld9qQcH9SprsrAYpF-58">
          <mxGeometry width="50" height="50" relative="1" as="geometry">
            <mxPoint x="940" y="265" as="sourcePoint" />
            <mxPoint x="1130" y="225" as="targetPoint" />
          </mxGeometry>
        </mxCell>
        <mxCell id="RF-ld9qQcH9SprsrAYpF-66" value="&lt;u&gt;&lt;b&gt;Post ID&lt;/b&gt;&lt;/u&gt;" style="ellipse;whiteSpace=wrap;html=1;" vertex="1" parent="1">
          <mxGeometry x="740" y="-35" width="100" height="50" as="geometry" />
        </mxCell>
        <mxCell id="RF-ld9qQcH9SprsrAYpF-67" value="Image&lt;br&gt;Content" style="ellipse;whiteSpace=wrap;html=1;" vertex="1" parent="1">
          <mxGeometry x="850" y="-35" width="100" height="50" as="geometry" />
        </mxCell>
        <mxCell id="RF-ld9qQcH9SprsrAYpF-68" value="User ID" style="ellipse;whiteSpace=wrap;html=1;" vertex="1" parent="1">
          <mxGeometry x="630" y="-20" width="100" height="50" as="geometry" />
        </mxCell>
        <mxCell id="RF-ld9qQcH9SprsrAYpF-69" value="Post ID" style="ellipse;whiteSpace=wrap;html=1;" vertex="1" parent="1">
          <mxGeometry x="960" y="-35" width="100" height="50" as="geometry" />
        </mxCell>
        <mxCell id="RF-ld9qQcH9SprsrAYpF-70" value="&lt;u&gt;&lt;b&gt;Photo ID&lt;/b&gt;&lt;/u&gt;" style="ellipse;whiteSpace=wrap;html=1;" vertex="1" parent="1">
          <mxGeometry x="1060" y="-5" width="100" height="50" as="geometry" />
        </mxCell>
        <mxCell id="RF-ld9qQcH9SprsrAYpF-71" value="&lt;u&gt;&lt;b&gt;Post ID&lt;/b&gt;&lt;/u&gt;" style="ellipse;whiteSpace=wrap;html=1;" vertex="1" parent="1">
          <mxGeometry x="980" y="115" width="100" height="50" as="geometry" />
        </mxCell>
        <mxCell id="RF-ld9qQcH9SprsrAYpF-72" value="User ID" style="ellipse;whiteSpace=wrap;html=1;" vertex="1" parent="1">
          <mxGeometry x="1050" y="160" width="100" height="50" as="geometry" />
        </mxCell>
        <mxCell id="RF-ld9qQcH9SprsrAYpF-73" value="File name" style="ellipse;whiteSpace=wrap;html=1;" vertex="1" parent="1">
          <mxGeometry x="1190" y="170" width="100" height="50" as="geometry" />
        </mxCell>
        <mxCell id="RF-ld9qQcH9SprsrAYpF-74" value="File Size" style="ellipse;whiteSpace=wrap;html=1;" vertex="1" parent="1">
          <mxGeometry x="1230" y="230" width="100" height="50" as="geometry" />
        </mxCell>
        <mxCell id="RF-ld9qQcH9SprsrAYpF-79" value="Tag Post&lt;br&gt;Map" style="rhombus;whiteSpace=wrap;html=1;fillColor=#ffe6cc;strokeColor=#d79b00;" vertex="1" parent="1">
          <mxGeometry x="725" y="465" width="135" height="60" as="geometry" />
        </mxCell>
        <mxCell id="RF-ld9qQcH9SprsrAYpF-83" value="" style="endArrow=none;html=1;rounded=0;entryX=0;entryY=0.5;entryDx=0;entryDy=0;exitX=1;exitY=0.5;exitDx=0;exitDy=0;" edge="1" parent="1" source="RF-ld9qQcH9SprsrAYpF-38" target="RF-ld9qQcH9SprsrAYpF-79">
          <mxGeometry relative="1" as="geometry">
            <mxPoint x="757.5" y="350" as="sourcePoint" />
            <mxPoint x="710" y="440" as="targetPoint" />
          </mxGeometry>
        </mxCell>
        <mxCell id="RF-ld9qQcH9SprsrAYpF-84" value="N" style="resizable=0;html=1;align=right;verticalAlign=bottom;" connectable="0" vertex="1" parent="RF-ld9qQcH9SprsrAYpF-83">
          <mxGeometry x="1" relative="1" as="geometry">
            <mxPoint x="2" y="-2" as="offset" />
          </mxGeometry>
        </mxCell>
        <mxCell id="RF-ld9qQcH9SprsrAYpF-85" value="&lt;b&gt;Tags&lt;br&gt;(해시태그)&lt;br&gt;&lt;/b&gt;" style="rounded=0;whiteSpace=wrap;html=1;fillColor=#d5e8d4;strokeColor=#82b366;" vertex="1" parent="1">
          <mxGeometry x="920" y="480" width="120" height="60" as="geometry" />
        </mxCell>
        <mxCell id="RF-ld9qQcH9SprsrAYpF-86" value="" style="endArrow=none;html=1;rounded=0;exitX=0;exitY=0.5;exitDx=0;exitDy=0;entryX=1;entryY=0.5;entryDx=0;entryDy=0;" edge="1" parent="1" source="RF-ld9qQcH9SprsrAYpF-85" target="RF-ld9qQcH9SprsrAYpF-79">
          <mxGeometry relative="1" as="geometry">
            <mxPoint x="952.5" y="680" as="sourcePoint" />
            <mxPoint x="910" y="530" as="targetPoint" />
          </mxGeometry>
        </mxCell>
        <mxCell id="RF-ld9qQcH9SprsrAYpF-87" value="N" style="resizable=0;html=1;align=right;verticalAlign=bottom;" connectable="0" vertex="1" parent="RF-ld9qQcH9SprsrAYpF-86">
          <mxGeometry x="1" relative="1" as="geometry">
            <mxPoint x="7" as="offset" />
          </mxGeometry>
        </mxCell>
        <mxCell id="RF-ld9qQcH9SprsrAYpF-89" value="" style="endArrow=none;html=1;exitX=0.607;exitY=1.011;exitDx=0;exitDy=0;entryX=0.5;entryY=0;entryDx=0;entryDy=0;exitPerimeter=0;" edge="1" parent="1" source="RF-ld9qQcH9SprsrAYpF-68" target="RF-ld9qQcH9SprsrAYpF-55">
          <mxGeometry width="50" height="50" relative="1" as="geometry">
            <mxPoint x="815" y="135" as="sourcePoint" />
            <mxPoint x="735" y="165" as="targetPoint" />
          </mxGeometry>
        </mxCell>
        <mxCell id="RF-ld9qQcH9SprsrAYpF-90" value="" style="endArrow=none;html=1;exitX=0.5;exitY=1;exitDx=0;exitDy=0;entryX=0.5;entryY=0;entryDx=0;entryDy=0;" edge="1" parent="1" source="RF-ld9qQcH9SprsrAYpF-66" target="RF-ld9qQcH9SprsrAYpF-55">
          <mxGeometry width="50" height="50" relative="1" as="geometry">
            <mxPoint x="840" y="100" as="sourcePoint" />
            <mxPoint x="855" y="125" as="targetPoint" />
          </mxGeometry>
        </mxCell>
        <mxCell id="RF-ld9qQcH9SprsrAYpF-91" value="" style="endArrow=none;html=1;exitX=0.5;exitY=1;exitDx=0;exitDy=0;entryX=0.5;entryY=0;entryDx=0;entryDy=0;" edge="1" parent="1" source="RF-ld9qQcH9SprsrAYpF-67" target="RF-ld9qQcH9SprsrAYpF-56">
          <mxGeometry width="50" height="50" relative="1" as="geometry">
            <mxPoint x="909.9953390593274" y="7.677669529663717" as="sourcePoint" />
            <mxPoint x="960" y="65" as="targetPoint" />
          </mxGeometry>
        </mxCell>
        <mxCell id="RF-ld9qQcH9SprsrAYpF-92" value="" style="endArrow=none;html=1;exitX=0.5;exitY=1;exitDx=0;exitDy=0;entryX=0.5;entryY=0;entryDx=0;entryDy=0;" edge="1" parent="1" source="RF-ld9qQcH9SprsrAYpF-69" target="RF-ld9qQcH9SprsrAYpF-56">
          <mxGeometry width="50" height="50" relative="1" as="geometry">
            <mxPoint x="1075.3553390593274" y="54.99766952966371" as="sourcePoint" />
            <mxPoint x="1120" y="115" as="targetPoint" />
          </mxGeometry>
        </mxCell>
        <mxCell id="RF-ld9qQcH9SprsrAYpF-93" value="" style="endArrow=none;html=1;exitX=0.5;exitY=0;exitDx=0;exitDy=0;entryX=0.5;entryY=1;entryDx=0;entryDy=0;" edge="1" parent="1" source="RF-ld9qQcH9SprsrAYpF-56" target="RF-ld9qQcH9SprsrAYpF-70">
          <mxGeometry width="50" height="50" relative="1" as="geometry">
            <mxPoint x="1132.6753390593274" y="64.99766952966371" as="sourcePoint" />
            <mxPoint x="1167.32" y="122.32" as="targetPoint" />
          </mxGeometry>
        </mxCell>
        <mxCell id="RF-ld9qQcH9SprsrAYpF-94" value="" style="endArrow=none;html=1;exitX=0.5;exitY=0;exitDx=0;exitDy=0;entryX=0;entryY=1;entryDx=0;entryDy=0;" edge="1" parent="1" source="RF-ld9qQcH9SprsrAYpF-57" target="RF-ld9qQcH9SprsrAYpF-71">
          <mxGeometry width="50" height="50" relative="1" as="geometry">
            <mxPoint x="1040" y="100" as="sourcePoint" />
            <mxPoint x="1110" y="60" as="targetPoint" />
          </mxGeometry>
        </mxCell>
        <mxCell id="RF-ld9qQcH9SprsrAYpF-95" value="" style="endArrow=none;html=1;entryX=0;entryY=0.5;entryDx=0;entryDy=0;exitX=0.5;exitY=0;exitDx=0;exitDy=0;" edge="1" parent="1" source="RF-ld9qQcH9SprsrAYpF-57" target="RF-ld9qQcH9SprsrAYpF-72">
          <mxGeometry width="50" height="50" relative="1" as="geometry">
            <mxPoint x="1170" y="215" as="sourcePoint" />
            <mxPoint x="1224.6446609406726" y="167.67766952966372" as="targetPoint" />
          </mxGeometry>
        </mxCell>
        <mxCell id="RF-ld9qQcH9SprsrAYpF-96" value="" style="endArrow=none;html=1;entryX=0.5;entryY=1;entryDx=0;entryDy=0;exitX=1;exitY=0.5;exitDx=0;exitDy=0;" edge="1" parent="1" source="RF-ld9qQcH9SprsrAYpF-58" target="RF-ld9qQcH9SprsrAYpF-73">
          <mxGeometry width="50" height="50" relative="1" as="geometry">
            <mxPoint x="1190" y="240" as="sourcePoint" />
            <mxPoint x="1227.3246609406726" y="227.67766952966372" as="targetPoint" />
          </mxGeometry>
        </mxCell>
        <mxCell id="RF-ld9qQcH9SprsrAYpF-97" value="" style="endArrow=none;html=1;exitX=1;exitY=0.5;exitDx=0;exitDy=0;entryX=0;entryY=1;entryDx=0;entryDy=0;" edge="1" parent="1" source="RF-ld9qQcH9SprsrAYpF-58" target="RF-ld9qQcH9SprsrAYpF-74">
          <mxGeometry width="50" height="50" relative="1" as="geometry">
            <mxPoint x="1190" y="320" as="sourcePoint" />
            <mxPoint x="1250" y="280" as="targetPoint" />
          </mxGeometry>
        </mxCell>
        <mxCell id="RF-ld9qQcH9SprsrAYpF-98" value="Post ID" style="ellipse;whiteSpace=wrap;html=1;" vertex="1" parent="1">
          <mxGeometry x="1260" y="295" width="100" height="50" as="geometry" />
        </mxCell>
        <mxCell id="RF-ld9qQcH9SprsrAYpF-99" style="edgeStyle=none;rounded=0;orthogonalLoop=1;jettySize=auto;html=1;exitX=1;exitY=0.25;exitDx=0;exitDy=0;startArrow=none;startFill=0;" edge="1" parent="1" source="RF-ld9qQcH9SprsrAYpF-57" target="RF-ld9qQcH9SprsrAYpF-57">
          <mxGeometry relative="1" as="geometry" />
        </mxCell>
        <mxCell id="RF-ld9qQcH9SprsrAYpF-101" value="" style="endArrow=none;html=1;entryX=0;entryY=0.5;entryDx=0;entryDy=0;exitX=1;exitY=0.5;exitDx=0;exitDy=0;" edge="1" parent="1" source="RF-ld9qQcH9SprsrAYpF-58" target="RF-ld9qQcH9SprsrAYpF-98">
          <mxGeometry width="50" height="50" relative="1" as="geometry">
            <mxPoint x="1180" y="305" as="sourcePoint" />
            <mxPoint x="1240" y="270" as="targetPoint" />
          </mxGeometry>
        </mxCell>
        <mxCell id="RF-ld9qQcH9SprsrAYpF-102" value="File Path" style="ellipse;whiteSpace=wrap;html=1;" vertex="1" parent="1">
          <mxGeometry x="1040" y="365" width="100" height="50" as="geometry" />
        </mxCell>
        <mxCell id="RF-ld9qQcH9SprsrAYpF-103" value="File Format" style="ellipse;whiteSpace=wrap;html=1;" vertex="1" parent="1">
          <mxGeometry x="1140" y="365" width="100" height="50" as="geometry" />
        </mxCell>
        <mxCell id="RF-ld9qQcH9SprsrAYpF-104" value="" style="endArrow=none;html=1;exitX=0.5;exitY=1;exitDx=0;exitDy=0;entryX=0;entryY=0;entryDx=0;entryDy=0;" edge="1" parent="1" source="RF-ld9qQcH9SprsrAYpF-58" target="RF-ld9qQcH9SprsrAYpF-103">
          <mxGeometry width="50" height="50" relative="1" as="geometry">
            <mxPoint x="1190" y="320" as="sourcePoint" />
            <mxPoint x="1254.6446609406726" y="282.6776695296637" as="targetPoint" />
          </mxGeometry>
        </mxCell>
        <mxCell id="RF-ld9qQcH9SprsrAYpF-105" value="" style="endArrow=none;html=1;exitX=0.5;exitY=1;exitDx=0;exitDy=0;entryX=0.44;entryY=-0.02;entryDx=0;entryDy=0;entryPerimeter=0;" edge="1" parent="1" source="RF-ld9qQcH9SprsrAYpF-58" target="RF-ld9qQcH9SprsrAYpF-102">
          <mxGeometry width="50" height="50" relative="1" as="geometry">
            <mxPoint x="1165.3600000000001" y="352.68" as="sourcePoint" />
            <mxPoint x="1180" y="355" as="targetPoint" />
          </mxGeometry>
        </mxCell>
        <mxCell id="RF-ld9qQcH9SprsrAYpF-106" value="&lt;u&gt;&lt;b&gt;File ID&lt;/b&gt;&lt;/u&gt;" style="ellipse;whiteSpace=wrap;html=1;" vertex="1" parent="1">
          <mxGeometry x="1240" y="355" width="100" height="50" as="geometry" />
        </mxCell>
        <mxCell id="RF-ld9qQcH9SprsrAYpF-107" value="" style="endArrow=none;html=1;entryX=0;entryY=0;entryDx=0;entryDy=0;exitX=1;exitY=0.5;exitDx=0;exitDy=0;" edge="1" parent="1" source="RF-ld9qQcH9SprsrAYpF-58" target="RF-ld9qQcH9SprsrAYpF-106">
          <mxGeometry width="50" height="50" relative="1" as="geometry">
            <mxPoint x="1190" y="320" as="sourcePoint" />
            <mxPoint x="1240" y="330" as="targetPoint" />
          </mxGeometry>
        </mxCell>
        <mxCell id="RF-ld9qQcH9SprsrAYpF-110" style="edgeStyle=none;rounded=0;orthogonalLoop=1;jettySize=auto;html=1;exitX=1;exitY=1;exitDx=0;exitDy=0;entryX=1;entryY=0.5;entryDx=0;entryDy=0;startArrow=none;startFill=0;" edge="1" parent="1" source="RF-ld9qQcH9SprsrAYpF-50" target="RF-ld9qQcH9SprsrAYpF-50">
          <mxGeometry relative="1" as="geometry" />
        </mxCell>
        <mxCell id="RF-ld9qQcH9SprsrAYpF-111" value="&lt;b&gt;Comments&lt;br&gt;(댓글)&lt;br&gt;&lt;/b&gt;" style="rounded=0;whiteSpace=wrap;html=1;fillColor=#d5e8d4;strokeColor=#82b366;" vertex="1" parent="1">
          <mxGeometry x="310" y="115" width="120" height="60" as="geometry" />
        </mxCell>
        <mxCell id="RF-ld9qQcH9SprsrAYpF-112" value="RegDate" style="ellipse;whiteSpace=wrap;html=1;" vertex="1" parent="1">
          <mxGeometry x="742.5" y="540" width="100" height="50" as="geometry" />
        </mxCell>
        <mxCell id="RF-ld9qQcH9SprsrAYpF-113" value="" style="endArrow=none;html=1;exitX=0.5;exitY=0;exitDx=0;exitDy=0;entryX=0.5;entryY=1;entryDx=0;entryDy=0;" edge="1" parent="1" source="RF-ld9qQcH9SprsrAYpF-112" target="RF-ld9qQcH9SprsrAYpF-79">
          <mxGeometry width="50" height="50" relative="1" as="geometry">
            <mxPoint x="674.1360309570387" y="607.5803578934187" as="sourcePoint" />
            <mxPoint x="620" y="500" as="targetPoint" />
          </mxGeometry>
        </mxCell>
        <mxCell id="RF-ld9qQcH9SprsrAYpF-114" value="Name" style="ellipse;whiteSpace=wrap;html=1;" vertex="1" parent="1">
          <mxGeometry x="980" y="580" width="100" height="50" as="geometry" />
        </mxCell>
        <mxCell id="RF-ld9qQcH9SprsrAYpF-115" value="Tag ID" style="ellipse;whiteSpace=wrap;html=1;" vertex="1" parent="1">
          <mxGeometry x="870" y="580" width="100" height="50" as="geometry" />
        </mxCell>
        <mxCell id="RF-ld9qQcH9SprsrAYpF-116" value="User No" style="ellipse;whiteSpace=wrap;html=1;" vertex="1" parent="1">
          <mxGeometry x="310" y="355" width="100" height="50" as="geometry" />
        </mxCell>
        <mxCell id="RF-ld9qQcH9SprsrAYpF-118" value="" style="endArrow=none;html=1;exitX=0;exitY=0.5;exitDx=0;exitDy=0;entryX=0.5;entryY=0;entryDx=0;entryDy=0;" edge="1" parent="1" source="RF-ld9qQcH9SprsrAYpF-116" target="RF-ld9qQcH9SprsrAYpF-3">
          <mxGeometry width="50" height="50" relative="1" as="geometry">
            <mxPoint x="315" y="390" as="sourcePoint" />
            <mxPoint x="240" y="400" as="targetPoint" />
          </mxGeometry>
        </mxCell>
        <mxCell id="RF-ld9qQcH9SprsrAYpF-121" value="" style="endArrow=none;html=1;exitX=0.603;exitY=1.003;exitDx=0;exitDy=0;entryX=0.5;entryY=0;entryDx=0;entryDy=0;exitPerimeter=0;" edge="1" parent="1" source="RF-ld9qQcH9SprsrAYpF-85" target="RF-ld9qQcH9SprsrAYpF-114">
          <mxGeometry width="50" height="50" relative="1" as="geometry">
            <mxPoint x="1005.86" y="637.42" as="sourcePoint" />
            <mxPoint x="1039.996030957019" y="670.0003578934096" as="targetPoint" />
          </mxGeometry>
        </mxCell>
        <mxCell id="RF-ld9qQcH9SprsrAYpF-123" value="" style="endArrow=none;html=1;exitX=0.577;exitY=1.003;exitDx=0;exitDy=0;entryX=0.5;entryY=0;entryDx=0;entryDy=0;exitPerimeter=0;" edge="1" parent="1" source="RF-ld9qQcH9SprsrAYpF-85" target="RF-ld9qQcH9SprsrAYpF-115">
          <mxGeometry width="50" height="50" relative="1" as="geometry">
            <mxPoint x="1002.3600000000001" y="550.1800000000001" as="sourcePoint" />
            <mxPoint x="1080" y="590" as="targetPoint" />
          </mxGeometry>
        </mxCell>
        <mxCell id="RF-ld9qQcH9SprsrAYpF-125" value="User ID" style="ellipse;whiteSpace=wrap;html=1;" vertex="1" parent="1">
          <mxGeometry x="50" y="45" width="100" height="50" as="geometry" />
        </mxCell>
        <mxCell id="RF-ld9qQcH9SprsrAYpF-126" value="RegDate" style="ellipse;whiteSpace=wrap;html=1;" vertex="1" parent="1">
          <mxGeometry x="50" y="110" width="100" height="50" as="geometry" />
        </mxCell>
        <mxCell id="RF-ld9qQcH9SprsrAYpF-128" value="UpDate" style="ellipse;whiteSpace=wrap;html=1;" vertex="1" parent="1">
          <mxGeometry x="110" y="170" width="100" height="50" as="geometry" />
        </mxCell>
        <mxCell id="RF-ld9qQcH9SprsrAYpF-129" value="&lt;u&gt;&lt;b&gt;Comment ID&lt;/b&gt;&lt;/u&gt;" style="ellipse;whiteSpace=wrap;html=1;" vertex="1" parent="1">
          <mxGeometry x="190" y="215" width="100" height="50" as="geometry" />
        </mxCell>
        <mxCell id="RF-ld9qQcH9SprsrAYpF-130" value="Post ID" style="ellipse;whiteSpace=wrap;html=1;" vertex="1" parent="1">
          <mxGeometry x="290" y="240" width="100" height="50" as="geometry" />
        </mxCell>
        <mxCell id="RF-ld9qQcH9SprsrAYpF-131" value="N" style="resizable=0;html=1;align=right;verticalAlign=bottom;" connectable="0" vertex="1" parent="1">
          <mxGeometry x="500.00061205096705" y="455.000389486979" as="geometry">
            <mxPoint x="3" y="7" as="offset" />
          </mxGeometry>
        </mxCell>
        <mxCell id="RF-ld9qQcH9SprsrAYpF-133" value="&lt;b&gt;Comments&lt;br&gt;Like&lt;br&gt;(댓글 추천)&lt;br&gt;&lt;/b&gt;" style="rounded=0;whiteSpace=wrap;html=1;fillColor=#d5e8d4;strokeColor=#82b366;" vertex="1" parent="1">
          <mxGeometry x="455" y="-45" width="120" height="60" as="geometry" />
        </mxCell>
        <mxCell id="RF-ld9qQcH9SprsrAYpF-134" value="&lt;b&gt;&lt;u&gt;User ID&lt;/u&gt;&lt;/b&gt;" style="ellipse;whiteSpace=wrap;html=1;" vertex="1" parent="1">
          <mxGeometry x="475" y="-140" width="100" height="50" as="geometry" />
        </mxCell>
        <mxCell id="RF-ld9qQcH9SprsrAYpF-135" value="&lt;u&gt;&lt;b&gt;Comment ID&lt;/b&gt;&lt;/u&gt;" style="ellipse;whiteSpace=wrap;html=1;" vertex="1" parent="1">
          <mxGeometry x="375" y="-120" width="100" height="50" as="geometry" />
        </mxCell>
        <mxCell id="RF-ld9qQcH9SprsrAYpF-136" value="" style="endArrow=none;html=1;entryX=0.5;entryY=1;entryDx=0;entryDy=0;exitX=0;exitY=0.5;exitDx=0;exitDy=0;" edge="1" parent="1" source="RF-ld9qQcH9SprsrAYpF-111" target="RF-ld9qQcH9SprsrAYpF-125">
          <mxGeometry width="50" height="50" relative="1" as="geometry">
            <mxPoint x="260" y="190" as="sourcePoint" />
            <mxPoint x="310" y="140" as="targetPoint" />
          </mxGeometry>
        </mxCell>
        <mxCell id="RF-ld9qQcH9SprsrAYpF-137" value="" style="endArrow=none;html=1;entryX=1;entryY=0.5;entryDx=0;entryDy=0;exitX=0;exitY=0.5;exitDx=0;exitDy=0;" edge="1" parent="1" source="RF-ld9qQcH9SprsrAYpF-111" target="RF-ld9qQcH9SprsrAYpF-126">
          <mxGeometry width="50" height="50" relative="1" as="geometry">
            <mxPoint x="380" y="125" as="sourcePoint" />
            <mxPoint x="280" y="85" as="targetPoint" />
          </mxGeometry>
        </mxCell>
        <mxCell id="RF-ld9qQcH9SprsrAYpF-138" value="" style="endArrow=none;html=1;entryX=1.004;entryY=0.317;entryDx=0;entryDy=0;exitX=0;exitY=0.5;exitDx=0;exitDy=0;entryPerimeter=0;" edge="1" parent="1" source="RF-ld9qQcH9SprsrAYpF-111" target="RF-ld9qQcH9SprsrAYpF-128">
          <mxGeometry width="50" height="50" relative="1" as="geometry">
            <mxPoint x="320" y="155" as="sourcePoint" />
            <mxPoint x="240" y="110" as="targetPoint" />
          </mxGeometry>
        </mxCell>
        <mxCell id="RF-ld9qQcH9SprsrAYpF-139" value="" style="endArrow=none;html=1;entryX=0.5;entryY=0;entryDx=0;entryDy=0;exitX=0;exitY=0.5;exitDx=0;exitDy=0;" edge="1" parent="1" source="RF-ld9qQcH9SprsrAYpF-111" target="RF-ld9qQcH9SprsrAYpF-129">
          <mxGeometry width="50" height="50" relative="1" as="geometry">
            <mxPoint x="320" y="155" as="sourcePoint" />
            <mxPoint x="230.4000000000001" y="170.85000000000036" as="targetPoint" />
          </mxGeometry>
        </mxCell>
        <mxCell id="RF-ld9qQcH9SprsrAYpF-140" value="" style="endArrow=none;html=1;entryX=0.5;entryY=0;entryDx=0;entryDy=0;exitX=0.5;exitY=1;exitDx=0;exitDy=0;" edge="1" parent="1" source="RF-ld9qQcH9SprsrAYpF-111" target="RF-ld9qQcH9SprsrAYpF-130">
          <mxGeometry width="50" height="50" relative="1" as="geometry">
            <mxPoint x="320" y="155" as="sourcePoint" />
            <mxPoint x="250" y="225" as="targetPoint" />
          </mxGeometry>
        </mxCell>
        <mxCell id="RF-ld9qQcH9SprsrAYpF-141" value="" style="endArrow=none;html=1;entryX=0.5;entryY=0;entryDx=0;entryDy=0;exitX=0.5;exitY=1;exitDx=0;exitDy=0;" edge="1" parent="1" source="RF-ld9qQcH9SprsrAYpF-134" target="RF-ld9qQcH9SprsrAYpF-133">
          <mxGeometry width="50" height="50" relative="1" as="geometry">
            <mxPoint x="557.5" y="-12.5" as="sourcePoint" />
            <mxPoint x="527.5" y="52.5" as="targetPoint" />
          </mxGeometry>
        </mxCell>
        <mxCell id="RF-ld9qQcH9SprsrAYpF-142" value="" style="endArrow=none;html=1;entryX=0.5;entryY=0;entryDx=0;entryDy=0;exitX=0.5;exitY=1;exitDx=0;exitDy=0;" edge="1" parent="1" source="RF-ld9qQcH9SprsrAYpF-135" target="RF-ld9qQcH9SprsrAYpF-133">
          <mxGeometry width="50" height="50" relative="1" as="geometry">
            <mxPoint x="552.5" y="-60" as="sourcePoint" />
            <mxPoint x="470" y="-20" as="targetPoint" />
          </mxGeometry>
        </mxCell>
        <mxCell id="RF-ld9qQcH9SprsrAYpF-143" value="have" style="rhombus;whiteSpace=wrap;html=1;fillColor=#ffe6cc;strokeColor=#d79b00;" vertex="1" parent="1">
          <mxGeometry x="420" y="45" width="135" height="60" as="geometry" />
        </mxCell>
        <mxCell id="RF-ld9qQcH9SprsrAYpF-144" value="" style="endArrow=none;html=1;rounded=0;entryX=0.5;entryY=1;entryDx=0;entryDy=0;exitX=1;exitY=0.5;exitDx=0;exitDy=0;" edge="1" parent="1" source="RF-ld9qQcH9SprsrAYpF-111" target="RF-ld9qQcH9SprsrAYpF-143">
          <mxGeometry relative="1" as="geometry">
            <mxPoint x="500" y="150" as="sourcePoint" />
            <mxPoint x="535" y="135" as="targetPoint" />
          </mxGeometry>
        </mxCell>
        <mxCell id="RF-ld9qQcH9SprsrAYpF-145" value="1" style="resizable=0;html=1;align=right;verticalAlign=bottom;" connectable="0" vertex="1" parent="RF-ld9qQcH9SprsrAYpF-144">
          <mxGeometry x="1" relative="1" as="geometry" />
        </mxCell>
        <mxCell id="RF-ld9qQcH9SprsrAYpF-146" value="" style="endArrow=none;html=1;rounded=0;exitX=0.5;exitY=1;exitDx=0;exitDy=0;entryX=0.5;entryY=0;entryDx=0;entryDy=0;" edge="1" parent="1" source="RF-ld9qQcH9SprsrAYpF-133" target="RF-ld9qQcH9SprsrAYpF-143">
          <mxGeometry relative="1" as="geometry">
            <mxPoint x="625" y="65" as="sourcePoint" />
            <mxPoint x="620.0000000000005" y="215" as="targetPoint" />
          </mxGeometry>
        </mxCell>
        <mxCell id="RF-ld9qQcH9SprsrAYpF-147" value="N" style="resizable=0;html=1;align=right;verticalAlign=bottom;" connectable="0" vertex="1" parent="RF-ld9qQcH9SprsrAYpF-146">
          <mxGeometry x="1" relative="1" as="geometry" />
        </mxCell>
        <mxCell id="RF-ld9qQcH9SprsrAYpF-148" value="" style="endArrow=none;html=1;exitX=1;exitY=0.5;exitDx=0;exitDy=0;entryX=0.75;entryY=1;entryDx=0;entryDy=0;" edge="1" parent="1" source="RF-ld9qQcH9SprsrAYpF-50" target="RF-ld9qQcH9SprsrAYpF-111">
          <mxGeometry width="50" height="50" relative="1" as="geometry">
            <mxPoint x="770.0000000000005" y="310" as="sourcePoint" />
            <mxPoint x="970" y="145" as="targetPoint" />
            <Array as="points">
              <mxPoint x="620" y="220" />
            </Array>
          </mxGeometry>
        </mxCell>
        <mxCell id="RF-ld9qQcH9SprsrAYpF-150" value="Comment&lt;br&gt;Content" style="ellipse;whiteSpace=wrap;html=1;" vertex="1" parent="1">
          <mxGeometry x="80" y="-10" width="100" height="50" as="geometry" />
        </mxCell>
        <mxCell id="RF-ld9qQcH9SprsrAYpF-152" value="" style="endArrow=none;html=1;entryX=0.5;entryY=1;entryDx=0;entryDy=0;exitX=0.5;exitY=0;exitDx=0;exitDy=0;" edge="1" parent="1" source="RF-ld9qQcH9SprsrAYpF-111" target="RF-ld9qQcH9SprsrAYpF-150">
          <mxGeometry width="50" height="50" relative="1" as="geometry">
            <mxPoint x="320" y="155" as="sourcePoint" />
            <mxPoint x="210" y="75" as="targetPoint" />
          </mxGeometry>
        </mxCell>
        <mxCell id="RF-ld9qQcH9SprsrAYpF-154" value="Password" style="ellipse;whiteSpace=wrap;html=1;" vertex="1" parent="1">
          <mxGeometry x="-90" y="580" width="100" height="50" as="geometry" />
        </mxCell>
        <mxCell id="RF-ld9qQcH9SprsrAYpF-155" value="" style="endArrow=none;html=1;exitX=1;exitY=0;exitDx=0;exitDy=0;entryX=0.5;entryY=1;entryDx=0;entryDy=0;" edge="1" parent="1" source="RF-ld9qQcH9SprsrAYpF-154" target="RF-ld9qQcH9SprsrAYpF-3">
          <mxGeometry width="50" height="50" relative="1" as="geometry">
            <mxPoint x="25.355339059327434" y="542.322330470336" as="sourcePoint" />
            <mxPoint x="260" y="530" as="targetPoint" />
          </mxGeometry>
        </mxCell>
        <mxCell id="RF-ld9qQcH9SprsrAYpF-156" value="have" style="rhombus;whiteSpace=wrap;html=1;fillColor=#ffe6cc;strokeColor=#d79b00;" vertex="1" parent="1">
          <mxGeometry x="282.75" y="760" width="135" height="60" as="geometry" />
        </mxCell>
        <mxCell id="RF-ld9qQcH9SprsrAYpF-164" value="" style="endArrow=none;html=1;rounded=0;exitX=0.75;exitY=1;exitDx=0;exitDy=0;entryX=0;entryY=0.5;entryDx=0;entryDy=0;" edge="1" parent="1" source="RF-ld9qQcH9SprsrAYpF-3" target="RF-ld9qQcH9SprsrAYpF-156">
          <mxGeometry relative="1" as="geometry">
            <mxPoint x="250" y="690" as="sourcePoint" />
            <mxPoint x="410" y="690" as="targetPoint" />
          </mxGeometry>
        </mxCell>
        <mxCell id="RF-ld9qQcH9SprsrAYpF-165" value="1" style="resizable=0;html=1;align=right;verticalAlign=bottom;" connectable="0" vertex="1" parent="RF-ld9qQcH9SprsrAYpF-164">
          <mxGeometry x="1" relative="1" as="geometry">
            <mxPoint x="-4" y="-1" as="offset" />
          </mxGeometry>
        </mxCell>
        <mxCell id="RF-ld9qQcH9SprsrAYpF-166" value="" style="endArrow=none;html=1;rounded=0;entryX=1;entryY=0.5;entryDx=0;entryDy=0;exitX=0;exitY=0.5;exitDx=0;exitDy=0;" edge="1" parent="1" source="RF-ld9qQcH9SprsrAYpF-168" target="RF-ld9qQcH9SprsrAYpF-156">
          <mxGeometry relative="1" as="geometry">
            <mxPoint x="454.75" y="830" as="sourcePoint" />
            <mxPoint x="494.75" y="790" as="targetPoint" />
          </mxGeometry>
        </mxCell>
        <mxCell id="RF-ld9qQcH9SprsrAYpF-167" value="N" style="resizable=0;html=1;align=right;verticalAlign=bottom;" connectable="0" vertex="1" parent="RF-ld9qQcH9SprsrAYpF-166">
          <mxGeometry x="1" relative="1" as="geometry" />
        </mxCell>
        <mxCell id="RF-ld9qQcH9SprsrAYpF-168" value="&lt;b&gt;Followers&lt;br&gt;(팔로워)&lt;br&gt;&lt;/b&gt;" style="rounded=0;whiteSpace=wrap;html=1;fillColor=#d5e8d4;strokeColor=#82b366;" vertex="1" parent="1">
          <mxGeometry x="507.25" y="760" width="120" height="60" as="geometry" />
        </mxCell>
        <mxCell id="RF-ld9qQcH9SprsrAYpF-170" value="User ID" style="ellipse;whiteSpace=wrap;html=1;" vertex="1" parent="1">
          <mxGeometry x="667.25" y="740" width="100" height="50" as="geometry" />
        </mxCell>
        <mxCell id="RF-ld9qQcH9SprsrAYpF-171" value="Follower ID" style="ellipse;whiteSpace=wrap;html=1;" vertex="1" parent="1">
          <mxGeometry x="667.25" y="800" width="100" height="50" as="geometry" />
        </mxCell>
        <mxCell id="RF-ld9qQcH9SprsrAYpF-172" value="" style="endArrow=none;html=1;exitX=0;exitY=0.5;exitDx=0;exitDy=0;entryX=1;entryY=0.5;entryDx=0;entryDy=0;" edge="1" parent="1" source="RF-ld9qQcH9SprsrAYpF-170" target="RF-ld9qQcH9SprsrAYpF-168">
          <mxGeometry width="50" height="50" relative="1" as="geometry">
            <mxPoint x="530" y="1039.8000000000002" as="sourcePoint" />
            <mxPoint x="587.2" y="880" as="targetPoint" />
          </mxGeometry>
        </mxCell>
        <mxCell id="RF-ld9qQcH9SprsrAYpF-173" value="" style="endArrow=none;html=1;exitX=0.044;exitY=0.244;exitDx=0;exitDy=0;entryX=1;entryY=0.5;entryDx=0;entryDy=0;exitPerimeter=0;" edge="1" parent="1" source="RF-ld9qQcH9SprsrAYpF-171" target="RF-ld9qQcH9SprsrAYpF-168">
          <mxGeometry width="50" height="50" relative="1" as="geometry">
            <mxPoint x="677.25" y="775" as="sourcePoint" />
            <mxPoint x="637.25" y="800" as="targetPoint" />
          </mxGeometry>
        </mxCell>
        <mxCell id="RF-ld9qQcH9SprsrAYpF-174" value="&lt;b&gt;Region&lt;br&gt;(지역)&lt;br&gt;&lt;/b&gt;" style="rounded=0;whiteSpace=wrap;html=1;fillColor=#d5e8d4;strokeColor=#82b366;" vertex="1" parent="1">
          <mxGeometry x="-300" y="425" width="120" height="60" as="geometry" />
        </mxCell>
        <mxCell id="RF-ld9qQcH9SprsrAYpF-175" value="Address&lt;br&gt;depth1: 시/도&lt;br&gt;depth2: 시/군/구&lt;br&gt;depth3: 읍/면/동" style="ellipse;whiteSpace=wrap;html=1;" vertex="1" parent="1">
          <mxGeometry x="-530" y="320" width="150" height="105" as="geometry" />
        </mxCell>
        <mxCell id="RF-ld9qQcH9SprsrAYpF-180" value="have" style="rhombus;whiteSpace=wrap;html=1;fillColor=#ffe6cc;strokeColor=#d79b00;" vertex="1" parent="1">
          <mxGeometry x="-95" y="425" width="135" height="60" as="geometry" />
        </mxCell>
        <mxCell id="RF-ld9qQcH9SprsrAYpF-182" value="" style="endArrow=none;html=1;rounded=0;exitX=0;exitY=0.5;exitDx=0;exitDy=0;entryX=1;entryY=0.5;entryDx=0;entryDy=0;" edge="1" parent="1" source="RF-ld9qQcH9SprsrAYpF-3" target="RF-ld9qQcH9SprsrAYpF-180">
          <mxGeometry relative="1" as="geometry">
            <mxPoint x="280" y="500" as="sourcePoint" />
            <mxPoint x="292.75" y="800" as="targetPoint" />
          </mxGeometry>
        </mxCell>
        <mxCell id="RF-ld9qQcH9SprsrAYpF-183" value="1" style="resizable=0;html=1;align=right;verticalAlign=bottom;" connectable="0" vertex="1" parent="RF-ld9qQcH9SprsrAYpF-182">
          <mxGeometry x="1" relative="1" as="geometry">
            <mxPoint x="-4" y="-1" as="offset" />
          </mxGeometry>
        </mxCell>
        <mxCell id="RF-ld9qQcH9SprsrAYpF-184" value="" style="endArrow=none;html=1;rounded=0;entryX=0;entryY=0.5;entryDx=0;entryDy=0;exitX=1;exitY=0.5;exitDx=0;exitDy=0;" edge="1" parent="1" source="RF-ld9qQcH9SprsrAYpF-174" target="RF-ld9qQcH9SprsrAYpF-180">
          <mxGeometry relative="1" as="geometry">
            <mxPoint x="-100.5" y="500" as="sourcePoint" />
            <mxPoint x="-190" y="500" as="targetPoint" />
          </mxGeometry>
        </mxCell>
        <mxCell id="RF-ld9qQcH9SprsrAYpF-185" value="N" style="resizable=0;html=1;align=right;verticalAlign=bottom;" connectable="0" vertex="1" parent="RF-ld9qQcH9SprsrAYpF-184">
          <mxGeometry x="1" relative="1" as="geometry" />
        </mxCell>
        <mxCell id="RF-ld9qQcH9SprsrAYpF-188" value="Longitude&lt;br&gt;(위도)" style="ellipse;whiteSpace=wrap;html=1;" vertex="1" parent="1">
          <mxGeometry x="-410" y="520" width="100" height="50" as="geometry" />
        </mxCell>
        <mxCell id="RF-ld9qQcH9SprsrAYpF-189" value="Latitude&lt;br&gt;(경도)" style="ellipse;whiteSpace=wrap;html=1;" vertex="1" parent="1">
          <mxGeometry x="-290" y="540" width="100" height="50" as="geometry" />
        </mxCell>
        <mxCell id="RF-ld9qQcH9SprsrAYpF-190" value="Region&lt;br&gt;Name" style="ellipse;whiteSpace=wrap;html=1;" vertex="1" parent="1">
          <mxGeometry x="-455" y="450" width="100" height="50" as="geometry" />
        </mxCell>
        <mxCell id="RF-ld9qQcH9SprsrAYpF-192" value="Region ID&lt;br&gt;(지역코드)" style="ellipse;whiteSpace=wrap;html=1;" vertex="1" parent="1">
          <mxGeometry x="-390" y="285" width="100" height="50" as="geometry" />
        </mxCell>
        <mxCell id="RF-ld9qQcH9SprsrAYpF-197" value="" style="endArrow=none;html=1;exitX=0.5;exitY=0;exitDx=0;exitDy=0;entryX=0.5;entryY=1;entryDx=0;entryDy=0;" edge="1" parent="1" source="RF-ld9qQcH9SprsrAYpF-189" target="RF-ld9qQcH9SprsrAYpF-174">
          <mxGeometry width="50" height="50" relative="1" as="geometry">
            <mxPoint x="-4.1360309570382014" y="527.5803578934187" as="sourcePoint" />
            <mxPoint x="250" y="500" as="targetPoint" />
          </mxGeometry>
        </mxCell>
        <mxCell id="RF-ld9qQcH9SprsrAYpF-198" value="" style="endArrow=none;html=1;exitX=1;exitY=0;exitDx=0;exitDy=0;entryX=0.5;entryY=1;entryDx=0;entryDy=0;" edge="1" parent="1" source="RF-ld9qQcH9SprsrAYpF-188" target="RF-ld9qQcH9SprsrAYpF-174">
          <mxGeometry width="50" height="50" relative="1" as="geometry">
            <mxPoint x="-229.99999999999977" y="550" as="sourcePoint" />
            <mxPoint x="-229.99999999999977" y="495" as="targetPoint" />
          </mxGeometry>
        </mxCell>
        <mxCell id="RF-ld9qQcH9SprsrAYpF-199" value="" style="endArrow=none;html=1;exitX=1;exitY=0.5;exitDx=0;exitDy=0;entryX=0;entryY=0.5;entryDx=0;entryDy=0;" edge="1" parent="1" source="RF-ld9qQcH9SprsrAYpF-190" target="RF-ld9qQcH9SprsrAYpF-174">
          <mxGeometry width="50" height="50" relative="1" as="geometry">
            <mxPoint x="-314.13603095703843" y="537.5803578934187" as="sourcePoint" />
            <mxPoint x="-229.99999999999977" y="495" as="targetPoint" />
          </mxGeometry>
        </mxCell>
        <mxCell id="RF-ld9qQcH9SprsrAYpF-200" value="" style="endArrow=none;html=1;exitX=1;exitY=1;exitDx=0;exitDy=0;entryX=0;entryY=0.5;entryDx=0;entryDy=0;" edge="1" parent="1" source="RF-ld9qQcH9SprsrAYpF-175" target="RF-ld9qQcH9SprsrAYpF-174">
          <mxGeometry width="50" height="50" relative="1" as="geometry">
            <mxPoint x="-344.9999999999998" y="485" as="sourcePoint" />
            <mxPoint x="-289.9999999999998" y="465" as="targetPoint" />
          </mxGeometry>
        </mxCell>
        <mxCell id="RF-ld9qQcH9SprsrAYpF-201" value="" style="endArrow=none;html=1;exitX=0.5;exitY=1;exitDx=0;exitDy=0;entryX=0.5;entryY=0;entryDx=0;entryDy=0;" edge="1" parent="1" source="RF-ld9qQcH9SprsrAYpF-192" target="RF-ld9qQcH9SprsrAYpF-174">
          <mxGeometry width="50" height="50" relative="1" as="geometry">
            <mxPoint x="-331.67480520910067" y="409.41744254754576" as="sourcePoint" />
            <mxPoint x="-289.9999999999998" y="465" as="targetPoint" />
          </mxGeometry>
        </mxCell>
        <mxCell id="RF-ld9qQcH9SprsrAYpF-202" value="RegDate&lt;br&gt;(지역 등록일자)" style="ellipse;whiteSpace=wrap;html=1;" vertex="1" parent="1">
          <mxGeometry x="-280" y="285" width="100" height="50" as="geometry" />
        </mxCell>
        <mxCell id="RF-ld9qQcH9SprsrAYpF-203" value="UpDate&lt;br&gt;(지역 수정일자)" style="ellipse;whiteSpace=wrap;html=1;" vertex="1" parent="1">
          <mxGeometry x="-190" y="330" width="100" height="50" as="geometry" />
        </mxCell>
        <mxCell id="RF-ld9qQcH9SprsrAYpF-204" value="" style="endArrow=none;html=1;exitX=0.5;exitY=1;exitDx=0;exitDy=0;entryX=0.5;entryY=0;entryDx=0;entryDy=0;" edge="1" parent="1" source="RF-ld9qQcH9SprsrAYpF-202" target="RF-ld9qQcH9SprsrAYpF-174">
          <mxGeometry width="50" height="50" relative="1" as="geometry">
            <mxPoint x="-329.9999999999998" y="345" as="sourcePoint" />
            <mxPoint x="-210" y="400" as="targetPoint" />
          </mxGeometry>
        </mxCell>
        <mxCell id="RF-ld9qQcH9SprsrAYpF-205" value="" style="endArrow=none;html=1;exitX=0;exitY=1;exitDx=0;exitDy=0;entryX=0.5;entryY=0;entryDx=0;entryDy=0;" edge="1" parent="1" source="RF-ld9qQcH9SprsrAYpF-203" target="RF-ld9qQcH9SprsrAYpF-174">
          <mxGeometry width="50" height="50" relative="1" as="geometry">
            <mxPoint x="-219.99999999999977" y="345" as="sourcePoint" />
            <mxPoint x="-150" y="430" as="targetPoint" />
          </mxGeometry>
        </mxCell>
        <mxCell id="RF-ld9qQcH9SprsrAYpF-206" value="&lt;b&gt;Notice&lt;br&gt;(공지사항)&lt;br&gt;&lt;/b&gt;" style="rounded=0;whiteSpace=wrap;html=1;fillColor=#d5e8d4;strokeColor=#82b366;" vertex="1" parent="1">
          <mxGeometry x="-310" y="10" width="120" height="60" as="geometry" />
        </mxCell>
        <mxCell id="RF-ld9qQcH9SprsrAYpF-207" value="User ID" style="ellipse;whiteSpace=wrap;html=1;" vertex="1" parent="1">
          <mxGeometry x="-150" y="110" width="100" height="50" as="geometry" />
        </mxCell>
        <mxCell id="RF-ld9qQcH9SprsrAYpF-208" value="RegDate" style="ellipse;whiteSpace=wrap;html=1;" vertex="1" parent="1">
          <mxGeometry x="-240" y="140" width="100" height="50" as="geometry" />
        </mxCell>
        <mxCell id="RF-ld9qQcH9SprsrAYpF-209" value="Post&lt;br&gt;Content" style="ellipse;whiteSpace=wrap;html=1;" vertex="1" parent="1">
          <mxGeometry x="-445" y="130" width="100" height="50" as="geometry" />
        </mxCell>
        <mxCell id="RF-ld9qQcH9SprsrAYpF-210" value="UpDate" style="ellipse;whiteSpace=wrap;html=1;" vertex="1" parent="1">
          <mxGeometry x="-345" y="140" width="100" height="50" as="geometry" />
        </mxCell>
        <mxCell id="RF-ld9qQcH9SprsrAYpF-211" value="&lt;b&gt;&lt;u&gt;Post ID&lt;/u&gt;&lt;/b&gt;" style="ellipse;whiteSpace=wrap;html=1;" vertex="1" parent="1">
          <mxGeometry x="-490" y="70" width="100" height="50" as="geometry" />
        </mxCell>
        <mxCell id="RF-ld9qQcH9SprsrAYpF-212" value="" style="endArrow=none;html=1;entryX=1;entryY=0.5;entryDx=0;entryDy=0;exitX=0.5;exitY=1;exitDx=0;exitDy=0;" edge="1" parent="1" source="RF-ld9qQcH9SprsrAYpF-206" target="RF-ld9qQcH9SprsrAYpF-211">
          <mxGeometry width="50" height="50" relative="1" as="geometry">
            <mxPoint x="-20" y="105" as="sourcePoint" />
            <mxPoint x="-130" y="25" as="targetPoint" />
          </mxGeometry>
        </mxCell>
        <mxCell id="RF-ld9qQcH9SprsrAYpF-213" value="" style="endArrow=none;html=1;entryX=1;entryY=0;entryDx=0;entryDy=0;exitX=0.5;exitY=1;exitDx=0;exitDy=0;" edge="1" parent="1" source="RF-ld9qQcH9SprsrAYpF-206" target="RF-ld9qQcH9SprsrAYpF-209">
          <mxGeometry width="50" height="50" relative="1" as="geometry">
            <mxPoint x="-130" y="60" as="sourcePoint" />
            <mxPoint x="-360" y="95" as="targetPoint" />
          </mxGeometry>
        </mxCell>
        <mxCell id="RF-ld9qQcH9SprsrAYpF-214" value="" style="endArrow=none;html=1;entryX=0.5;entryY=0;entryDx=0;entryDy=0;exitX=0.5;exitY=1;exitDx=0;exitDy=0;" edge="1" parent="1" source="RF-ld9qQcH9SprsrAYpF-206" target="RF-ld9qQcH9SprsrAYpF-210">
          <mxGeometry width="50" height="50" relative="1" as="geometry">
            <mxPoint x="-140" y="60" as="sourcePoint" />
            <mxPoint x="-349.64466094067257" y="147.32233047033606" as="targetPoint" />
          </mxGeometry>
        </mxCell>
        <mxCell id="RF-ld9qQcH9SprsrAYpF-215" value="" style="endArrow=none;html=1;entryX=0.5;entryY=0;entryDx=0;entryDy=0;exitX=0.5;exitY=1;exitDx=0;exitDy=0;" edge="1" parent="1" source="RF-ld9qQcH9SprsrAYpF-206" target="RF-ld9qQcH9SprsrAYpF-208">
          <mxGeometry width="50" height="50" relative="1" as="geometry">
            <mxPoint x="-252" y="86" as="sourcePoint" />
            <mxPoint x="-285" y="150" as="targetPoint" />
          </mxGeometry>
        </mxCell>
        <mxCell id="RF-ld9qQcH9SprsrAYpF-216" value="" style="endArrow=none;html=1;entryX=0.5;entryY=0;entryDx=0;entryDy=0;exitX=0.5;exitY=1;exitDx=0;exitDy=0;" edge="1" parent="1" source="RF-ld9qQcH9SprsrAYpF-206" target="RF-ld9qQcH9SprsrAYpF-207">
          <mxGeometry width="50" height="50" relative="1" as="geometry">
            <mxPoint x="-100" y="70" as="sourcePoint" />
            <mxPoint x="-180" y="150" as="targetPoint" />
          </mxGeometry>
        </mxCell>
        <mxCell id="RF-ld9qQcH9SprsrAYpF-218" value="isLayer&lt;br&gt;(대댓글 여부)" style="ellipse;whiteSpace=wrap;html=1;" vertex="1" parent="1">
          <mxGeometry x="330" y="-30" width="100" height="50" as="geometry" />
        </mxCell>
        <mxCell id="RF-ld9qQcH9SprsrAYpF-219" value="" style="endArrow=none;html=1;entryX=0.5;entryY=1;entryDx=0;entryDy=0;exitX=0.5;exitY=0;exitDx=0;exitDy=0;" edge="1" parent="1" source="RF-ld9qQcH9SprsrAYpF-111" target="RF-ld9qQcH9SprsrAYpF-218">
          <mxGeometry width="50" height="50" relative="1" as="geometry">
            <mxPoint x="380" y="125" as="sourcePoint" />
            <mxPoint x="230" y="10" as="targetPoint" />
          </mxGeometry>
        </mxCell>
        <mxCell id="RF-ld9qQcH9SprsrAYpF-220" value="Comment Group&lt;br&gt;(대댓글 확인용 0~99)" style="ellipse;whiteSpace=wrap;html=1;" vertex="1" parent="1">
          <mxGeometry x="180" y="-45" width="140" height="50" as="geometry" />
        </mxCell>
        <mxCell id="RF-ld9qQcH9SprsrAYpF-221" value="" style="endArrow=none;html=1;entryX=0.5;entryY=1;entryDx=0;entryDy=0;exitX=0.5;exitY=0;exitDx=0;exitDy=0;" edge="1" parent="1" source="RF-ld9qQcH9SprsrAYpF-111" target="RF-ld9qQcH9SprsrAYpF-220">
          <mxGeometry width="50" height="50" relative="1" as="geometry">
            <mxPoint x="350" y="60" as="sourcePoint" />
            <mxPoint x="390" y="30" as="targetPoint" />
          </mxGeometry>
        </mxCell>
        <mxCell id="RF-ld9qQcH9SprsrAYpF-222" value="&lt;b&gt;Chat Contents&lt;br&gt;(채팅 내역)&lt;br&gt;&lt;/b&gt;" style="rounded=0;whiteSpace=wrap;html=1;fillColor=#d5e8d4;strokeColor=#82b366;" vertex="1" parent="1">
          <mxGeometry x="10" y="-370" width="120" height="60" as="geometry" />
        </mxCell>
        <mxCell id="RF-ld9qQcH9SprsrAYpF-223" value="Update" style="ellipse;whiteSpace=wrap;html=1;" vertex="1" parent="1">
          <mxGeometry x="170" y="-270" width="100" height="50" as="geometry" />
        </mxCell>
        <mxCell id="RF-ld9qQcH9SprsrAYpF-224" value="RegDate" style="ellipse;whiteSpace=wrap;html=1;" vertex="1" parent="1">
          <mxGeometry x="80" y="-240" width="100" height="50" as="geometry" />
        </mxCell>
        <mxCell id="RF-ld9qQcH9SprsrAYpF-225" value="&lt;b&gt;&lt;u&gt;Chat Room ID&lt;/u&gt;&lt;/b&gt;" style="ellipse;whiteSpace=wrap;html=1;" vertex="1" parent="1">
          <mxGeometry x="-130" y="-250" width="100" height="50" as="geometry" />
        </mxCell>
        <mxCell id="RF-ld9qQcH9SprsrAYpF-226" value="Content" style="ellipse;whiteSpace=wrap;html=1;" vertex="1" parent="1">
          <mxGeometry x="-25" y="-240" width="100" height="50" as="geometry" />
        </mxCell>
        <mxCell id="RF-ld9qQcH9SprsrAYpF-227" value="&lt;b&gt;&lt;u&gt;Chat Content ID&lt;/u&gt;&lt;/b&gt;" style="ellipse;whiteSpace=wrap;html=1;" vertex="1" parent="1">
          <mxGeometry x="-180" y="-310" width="110" height="50" as="geometry" />
        </mxCell>
        <mxCell id="RF-ld9qQcH9SprsrAYpF-228" value="" style="endArrow=none;html=1;entryX=1;entryY=0.5;entryDx=0;entryDy=0;exitX=0.5;exitY=1;exitDx=0;exitDy=0;" edge="1" parent="1" source="RF-ld9qQcH9SprsrAYpF-222" target="RF-ld9qQcH9SprsrAYpF-227">
          <mxGeometry width="50" height="50" relative="1" as="geometry">
            <mxPoint x="300" y="-275" as="sourcePoint" />
            <mxPoint x="190" y="-355" as="targetPoint" />
          </mxGeometry>
        </mxCell>
        <mxCell id="RF-ld9qQcH9SprsrAYpF-229" value="" style="endArrow=none;html=1;entryX=1;entryY=0;entryDx=0;entryDy=0;exitX=0.5;exitY=1;exitDx=0;exitDy=0;" edge="1" parent="1" source="RF-ld9qQcH9SprsrAYpF-222" target="RF-ld9qQcH9SprsrAYpF-225">
          <mxGeometry width="50" height="50" relative="1" as="geometry">
            <mxPoint x="190" y="-320" as="sourcePoint" />
            <mxPoint x="-40" y="-285" as="targetPoint" />
          </mxGeometry>
        </mxCell>
        <mxCell id="RF-ld9qQcH9SprsrAYpF-230" value="" style="endArrow=none;html=1;entryX=0.5;entryY=0;entryDx=0;entryDy=0;exitX=0.5;exitY=1;exitDx=0;exitDy=0;" edge="1" parent="1" source="RF-ld9qQcH9SprsrAYpF-222" target="RF-ld9qQcH9SprsrAYpF-226">
          <mxGeometry width="50" height="50" relative="1" as="geometry">
            <mxPoint x="180" y="-320" as="sourcePoint" />
            <mxPoint x="-29.644660940672566" y="-232.67766952966394" as="targetPoint" />
          </mxGeometry>
        </mxCell>
        <mxCell id="RF-ld9qQcH9SprsrAYpF-231" value="" style="endArrow=none;html=1;entryX=0.5;entryY=0;entryDx=0;entryDy=0;exitX=0.5;exitY=1;exitDx=0;exitDy=0;" edge="1" parent="1" source="RF-ld9qQcH9SprsrAYpF-222" target="RF-ld9qQcH9SprsrAYpF-224">
          <mxGeometry width="50" height="50" relative="1" as="geometry">
            <mxPoint x="68" y="-294" as="sourcePoint" />
            <mxPoint x="35" y="-230" as="targetPoint" />
          </mxGeometry>
        </mxCell>
        <mxCell id="RF-ld9qQcH9SprsrAYpF-232" value="" style="endArrow=none;html=1;entryX=0.5;entryY=0;entryDx=0;entryDy=0;exitX=0.5;exitY=1;exitDx=0;exitDy=0;" edge="1" parent="1" source="RF-ld9qQcH9SprsrAYpF-222" target="RF-ld9qQcH9SprsrAYpF-223">
          <mxGeometry width="50" height="50" relative="1" as="geometry">
            <mxPoint x="220" y="-310" as="sourcePoint" />
            <mxPoint x="140" y="-230" as="targetPoint" />
          </mxGeometry>
        </mxCell>
        <mxCell id="RF-ld9qQcH9SprsrAYpF-243" value="&lt;b&gt;Chat Room&lt;br&gt;(1:1 채팅방)&lt;br&gt;&lt;/b&gt;" style="rounded=0;whiteSpace=wrap;html=1;fillColor=#d5e8d4;strokeColor=#82b366;" vertex="1" parent="1">
          <mxGeometry x="-500" y="-380" width="120" height="60" as="geometry" />
        </mxCell>
        <mxCell id="RF-ld9qQcH9SprsrAYpF-244" value="Receiver&lt;br&gt;Status" style="ellipse;whiteSpace=wrap;html=1;" vertex="1" parent="1">
          <mxGeometry x="-630" y="-480" width="100" height="50" as="geometry" />
        </mxCell>
        <mxCell id="RF-ld9qQcH9SprsrAYpF-246" value="RegDate" style="ellipse;whiteSpace=wrap;html=1;" vertex="1" parent="1">
          <mxGeometry x="-635" y="-260" width="100" height="50" as="geometry" />
        </mxCell>
        <mxCell id="RF-ld9qQcH9SprsrAYpF-247" value="UpDate" style="ellipse;whiteSpace=wrap;html=1;" vertex="1" parent="1">
          <mxGeometry x="-535" y="-250" width="100" height="50" as="geometry" />
        </mxCell>
        <mxCell id="RF-ld9qQcH9SprsrAYpF-248" value="&lt;b&gt;&lt;u&gt;Chat Room ID&lt;/u&gt;&lt;/b&gt;" style="ellipse;whiteSpace=wrap;html=1;" vertex="1" parent="1">
          <mxGeometry x="-680" y="-320" width="100" height="50" as="geometry" />
        </mxCell>
        <mxCell id="RF-ld9qQcH9SprsrAYpF-249" value="" style="endArrow=none;html=1;entryX=1;entryY=0.5;entryDx=0;entryDy=0;exitX=0.5;exitY=1;exitDx=0;exitDy=0;" edge="1" parent="1" source="RF-ld9qQcH9SprsrAYpF-243" target="RF-ld9qQcH9SprsrAYpF-248">
          <mxGeometry width="50" height="50" relative="1" as="geometry">
            <mxPoint x="-210" y="-285" as="sourcePoint" />
            <mxPoint x="-320" y="-365" as="targetPoint" />
          </mxGeometry>
        </mxCell>
        <mxCell id="RF-ld9qQcH9SprsrAYpF-250" value="" style="endArrow=none;html=1;entryX=1;entryY=0;entryDx=0;entryDy=0;exitX=0.5;exitY=1;exitDx=0;exitDy=0;" edge="1" parent="1" source="RF-ld9qQcH9SprsrAYpF-243" target="RF-ld9qQcH9SprsrAYpF-246">
          <mxGeometry width="50" height="50" relative="1" as="geometry">
            <mxPoint x="-320" y="-330" as="sourcePoint" />
            <mxPoint x="-550" y="-295" as="targetPoint" />
          </mxGeometry>
        </mxCell>
        <mxCell id="RF-ld9qQcH9SprsrAYpF-251" value="" style="endArrow=none;html=1;entryX=0.5;entryY=0;entryDx=0;entryDy=0;exitX=0.5;exitY=1;exitDx=0;exitDy=0;" edge="1" parent="1" source="RF-ld9qQcH9SprsrAYpF-243" target="RF-ld9qQcH9SprsrAYpF-247">
          <mxGeometry width="50" height="50" relative="1" as="geometry">
            <mxPoint x="-330" y="-330" as="sourcePoint" />
            <mxPoint x="-539.6446609406726" y="-242.67766952966394" as="targetPoint" />
          </mxGeometry>
        </mxCell>
        <mxCell id="RF-ld9qQcH9SprsrAYpF-253" value="" style="endArrow=none;html=1;entryX=0.5;entryY=1;entryDx=0;entryDy=0;exitX=0.5;exitY=0;exitDx=0;exitDy=0;" edge="1" parent="1" source="RF-ld9qQcH9SprsrAYpF-243" target="RF-ld9qQcH9SprsrAYpF-244">
          <mxGeometry width="50" height="50" relative="1" as="geometry">
            <mxPoint x="-290" y="-320" as="sourcePoint" />
            <mxPoint x="-370" y="-240" as="targetPoint" />
          </mxGeometry>
        </mxCell>
        <mxCell id="RF-ld9qQcH9SprsrAYpF-254" value="Contetn Check&lt;br&gt;Status (읽은여부)" style="ellipse;whiteSpace=wrap;html=1;" vertex="1" parent="1">
          <mxGeometry x="210" y="-350" width="130" height="50" as="geometry" />
        </mxCell>
        <mxCell id="RF-ld9qQcH9SprsrAYpF-255" value="" style="endArrow=none;html=1;entryX=0;entryY=0.5;entryDx=0;entryDy=0;exitX=1;exitY=0.5;exitDx=0;exitDy=0;" edge="1" parent="1" source="RF-ld9qQcH9SprsrAYpF-222" target="RF-ld9qQcH9SprsrAYpF-254">
          <mxGeometry width="50" height="50" relative="1" as="geometry">
            <mxPoint x="80" y="-300" as="sourcePoint" />
            <mxPoint x="230" y="-260" as="targetPoint" />
          </mxGeometry>
        </mxCell>
        <mxCell id="RF-ld9qQcH9SprsrAYpF-256" value="Receiver&lt;br&gt;Status" style="ellipse;whiteSpace=wrap;html=1;" vertex="1" parent="1">
          <mxGeometry x="-525" y="-480" width="100" height="50" as="geometry" />
        </mxCell>
        <mxCell id="RF-ld9qQcH9SprsrAYpF-257" value="" style="endArrow=none;html=1;entryX=0.5;entryY=1;entryDx=0;entryDy=0;exitX=0.5;exitY=0;exitDx=0;exitDy=0;" edge="1" parent="1" target="RF-ld9qQcH9SprsrAYpF-256" source="RF-ld9qQcH9SprsrAYpF-243">
          <mxGeometry width="50" height="50" relative="1" as="geometry">
            <mxPoint x="-320" y="-379.9999999999998" as="sourcePoint" />
            <mxPoint x="-250" y="-240" as="targetPoint" />
          </mxGeometry>
        </mxCell>
      </root>
    </mxGraphModel>
  </diagram>
</mxfile>
